/* XPM */
static char *_1ee658c8e494f6181a914baed86dd87hUcPVN6vpsloBqjL[] = {
/* columns rows colors chars-per-pixel */
"50 50 25 1 ",
"  c black",
". c #010101",
"X c #020202",
"o c gray1",
"O c #040404",
"+ c gray2",
"@ c #060606",
"# c #070707",
"$ c gray3",
"% c #090909",
"& c gray4",
"* c #0B0B0B",
"= c #0C0C0C",
"- c gray5",
"; c #0E0E0E",
": c gray6",
"> c #101010",
", c #111111",
"< c gray7",
"1 c #131313",
"2 c gray8",
"3 c #151515",
"4 c #161616",
"5 c gray9",
"6 c #181818",
/* pixels */
"         O  OOO$OO$$$$$$$==$$$$$$O$OOOOOO  O      ",
"          OOOOOOOO$$$==$$$$=$=$$$OO$OOOOO         ",
"         OOOOOO$$$$$$$$$$$=$$$$$$$$OOOOOO  O      ",
"          OO$O$O$$$$=$=$==$$==$$$$$$$OOOOOO       ",
"         OOO$OO$$$$=$===$==$$==$$$$$$O$OOOO       ",
"      O  O OOO$O$$=$=$$=$$$==$$$$$=$$$$OO O  O    ",
"       OOOOO$O$$$$$$$$===$=$=$=$=$$$$$$$OOOO      ",
"       O OOOO$$$$$$==============$$$$$$O$OO O     ",
"      OOOOOO$$$$$==$======$======$$$$$$$$OOOO     ",
"       O OO$$$$$==$==============$=$$=$OOOOO      ",
"      OOOOO$$$$$$======>>=>>>=====$=$=$OOOOOO O   ",
"      OOOOOO$$==$=$=>>>>=>=>>=>=====$=$$$OOOO     ",
"      OOOOO$$$$$$=$==>=>>>>=>=>=====$=$$$OOOO     ",
"     OOO$OO$$$$$=====>>>>=>>=>>>==$==$=$$$OOO  O  ",
"     OOOO$O$$=$===>=>>2>>>2>>>=>=====$$$$$OOOOO   ",
"      OOOO$$$$=$=====>>>>>>=>>>=>====$$$$$OOOO    ",
"     OOOO$$==$===>>==>>>>>>>>>>=>==>=$=$$$OOOOO   ",
"   O OOO$O$$$$=$==>=>>>>>2>>>2>>>>====$==$$OOO    ",
"     OO$O$$$$=====>>>>>2>222>>2>>===$=$$$$OOOOO   ",
"     OOOO$$$=====>=>>>2>2>2>2>>>>>===$=$$$$OOO    ",
"     OOO$$$$==$==>>>>>>2222>>>>>>>===$==$$$OOOO   ",
"  O  OOOO$$$=$===>>>>22222222>>2>>>====$$$$OOOO   ",
"     OOO$$=$$===>=>>>>226222222>>>>====$$$$OOOO   ",
"  O OOOOO$$$=====>>>>22626622>2>>>>>===$$$$$$OO   ",
"   OOOOOO$$$$===>>>>>262622222>2>>===>=$=$$$$OOO  ",
"    OOOO$$$$===>=>>>22222666222>>>>=====$$O$OOO O ",
"   OOOO$$$$$$===>>>>>2226622222>>>>==>=$$$$OOOOO O",
"    OOOOO$=$==$=>>>2>2266662622>>>>>===$$=$$OOO   ",
"    OOOOO$$=====>>>>22222262222>>>>>===$==$$OOO   ",
"   O OOO$$=$===>=>>=>2222622222>>>>=====$$$OOOO O ",
"     OO$O$$=$===>>>>222226622>>>>>>=>==$$$OOOOO   ",
"   O OOO$$$=$=====>>>222222222>2>>>=====$$$OOOO   ",
"  O  OOO$$=$====>>=>>22622622>>>>>=====$$$O$OOO   ",
"     OOOO$$$$=====>>>>>>2222>222>>=>====$$O$OOO   ",
"  O  OOO$$$$$====>>=>>22222>>>>>>>>===$=$$$OOOO   ",
"     OOOOO$$=$==>>>>>>>2>22>22>>>>======$$OOOOO   ",
"  O  OOOOO$$$===>=>=>>2>2>2>>>>>=>=====$$O$OOOO   ",
"     OOOOO$$=$$===>>>>>2>2222>>>>=====$$$$$OOO    ",
"     OOOO$$$=$====>=>>>>>>>>>>>>>====$$$$$$OOOO   ",
"       OOOO$==$$===>>>>>>2>>>>2>>===$=$=$$$OOO    ",
"      OOOOO$==$====>==>>>>>>>>==>=====$$$$OOOO    ",
"      OOO$$$$$$=$====>>>>>>>>=>=====$=$$$$$OO     ",
"     OOOOO$$$$$=====>>>>>>>>>=>====$$=$$OOOOO     ",
"       OOOOO$$=$============>=======$=$$$OOOO     ",
"      OOOO$O$$$$=$=====>=>>===>====$=$$OOOOOO     ",
"      OOOOO$$$$=$===============$===$$OOOOOOO     ",
"       OOOOO$$$==$========>====>==$$$$$O$OOOO     ",
"        OOOOO$$$$$===============$=$$$OOOOOO      ",
"       OOOOOO$$$$============$$=$==$$$OOOOOO      ",
"        OOOOOO$$$$$$$=$====$===$=$$$O$O$OOOOO     "
};
