/* XPM */
static char *_b626caa0b71401483c53c29b84bdce4JmRQp54fOl2OuamM[] = {
/* columns rows colors chars-per-pixel */
"50 50 125 2 ",
"   c None",
".  c #B76E4E",
"X  c #B66E4F",
"o  c #B76E4F",
"O  c #B76F4F",
"+  c #B86D4E",
"@  c #B86E4F",
"#  c #B86F4F",
"$  c #B76E50",
"%  c #B76F50",
"&  c #B86E50",
"*  c #B86F50",
"=  c #B87050",
"-  c #B97050",
";  c #B97051",
":  c #B97151",
">  c #BA7151",
",  c #BA7252",
"<  c #BB7252",
"1  c #BB7352",
"2  c #BB7353",
"3  c #BC7453",
"4  c #BC7553",
"5  c #BD7554",
"6  c #BD7654",
"7  c #BE7755",
"8  c #BF7856",
"9  c #C07856",
"0  c #C07956",
"q  c #C17A57",
"w  c #C17B57",
"e  c #C27B57",
"r  c #C27B58",
"t  c #C27C58",
"y  c #C37D58",
"u  c #C37D59",
"i  c #C47E59",
"p  c #C57F5A",
"a  c #C5805B",
"s  c #C6815B",
"d  c #C7815B",
"f  c #C8835C",
"g  c #C9845D",
"h  c #C9855D",
"j  c #CA865E",
"k  c #CB865E",
"l  c #CB875F",
"z  c #CB8961",
"x  c #CB8962",
"c  c #CD8961",
"v  c #CE8A61",
"b  c #CE8B61",
"n  c #CF8C62",
"m  c #D08D62",
"M  c #D08D63",
"N  c #D19267",
"B  c #D29267",
"V  c #D49266",
"C  c #D49366",
"Z  c #D59366",
"A  c #D69467",
"S  c #D09168",
"D  c #D19168",
"F  c #D79568",
"G  c #D79668",
"H  c #D59A6E",
"J  c #D59A6F",
"K  c #D69A6E",
"L  c #D79A6E",
"P  c #D69A6F",
"I  c #DB9B6B",
"U  c #DC9B6B",
"Y  c #D89A6D",
"T  c #DB9B6C",
"R  c #DE9E6D",
"E  c #DEA373",
"W  c #DAA275",
"Q  c #DBA275",
"!  c #D9A276",
"~  c #DAA276",
"^  c #DDA374",
"/  c #DDAA7D",
"(  c #DFAA7C",
")  c #DEAA7D",
"_  c #E2A471",
"`  c #E4A773",
"'  c #E0AA7B",
"]  c #E3AB7A",
"[  c #E4AB79",
"{  c #E5AE7C",
"}  c #E6B281",
"|  c #E5B382",
" . c #E4B383",
".. c #E1B284",
"X. c #E1B285",
"o. c #E2B284",
"O. c #E6B685",
"+. c #E6B888",
"@. c #E5BA8B",
"#. c #E6BA8B",
"$. c #E4BA8C",
"%. c #E7BD8E",
"&. c #E7BD8F",
"*. c #E7BF90",
"=. c #E6C194",
"-. c #E7C194",
";. c #E7C294",
":. c #E8C395",
">. c #E8C497",
",. c #E8C598",
"<. c #E8C79A",
"1. c #E8C89B",
"2. c #E8C99D",
"3. c #E9CB9F",
"4. c #E9CCA0",
"5. c #E9CDA1",
"6. c #E9CDA2",
"7. c #E9CFA3",
"8. c #E9D0A5",
"9. c #E9D0A6",
"0. c #EAD2A7",
"q. c #EAD2A8",
"w. c #EAD3A8",
"e. c #EAD3A9",
"r. c #EAD4AA",
/* pixels */
"                              O $ . % . $ $ $ . . $ $ $ . $ . % $ $ .                               ",
"                            . $ % % % % & = $ = % % = & $ % % % $ = % $                             ",
"                          $ . $ = = % % = = = = % % % $ % % % % & $ & . $                           ",
"                        $ . $ $ = = = = = = 3 = = 4 = 5 = 4 = = = = & $ . $                         ",
"                        . $ @ & = 5 4 5 9 9 w w w 9 w w t 8 8 4 4 = = & . .                         ",
"                      . $ & & $ = 5 8 r a k f k k h h k g i t 8 5 = & & $ $ $                       ",
"                  @ O . O & & = 5 8 t d k c n M M M M M c k d t 8 4 % $ $ % & $ @                   ",
"                = O O % $ @ & & 5 r d z n A G G G G G A A M z d 9 4 = $ @ % = & . =                 ",
"              = . $ & $ = & = & 5 t k M A U R R R R R R U A n h t 4 $ % % = & & $ % @               ",
"            @ . % = & = = = = = 8 d c C Y _ ` ` ` ` ` ` _ U C l d 8 % = = = & = = $ . @             ",
"            O $ & = = 3 4 5 8 9 d z D J ^ [ { { { { { { ] ^ Y B z d 9 8 5 5 = = = & $ O             ",
"          $ . % & = = 5 9 9 i d z S J W '  .O.O.O.O.O.O. .( W J B z d t t 9 5 3 & $ % . .           ",
"$ $ $ . . $ . % & = 3 9 i d k c B J W ( ..@.%.%.%.%.%.%.@...( W J B l k f t 9 5 = = & & & & $ & $ $ ",
"@ @ @ $ $ & @ @ & = 5 r d k M C J W ( ..$.-.>.>.>.>.>.>.-.$...( ^ I C M k d t 5 = & @ & & & $ @ @ @ ",
". . $ . @ $ . $ & 3 5 i k M A I E ] ..$.-.2.4.4.4.4.4.4.2.-.$.../ E I A M k i 5 = $ @ . & & & & . . ",
"& @ $ & = $ % % = = 9 f c C I _ [  .$.:.2.9.e.e.e.e.e.e.9.3.-.$.O.[ _ I A c f 9 = & $ = & & & & & @ ",
"& & = = = = 4 4 5 9 p x D Y _ [  .+.&.,.4.w.r.r.r.r.r.r.w.4.,.-.+.o.] E Y S x p 9 5 3 3 = = & & & = ",
"= = & = 5 5 8 w i p x S J W '  .O.&.:.3.4.9.r.r.r.r.r.r.9.4.1.:.*.#.o.' Q Y S x p r r 9 5 3 = = = & ",
"& = & = 5 9 t d k c S J ^ ( ..$.&.:.,.3.4.r.r.r.r.r.r.r.0.8.3.1.*.*.#.o./ ~ P S c k d t 9 4 = & & & ",
"= & = = 8 t d k n V J P ....$.-.,.1.4.4.9.e.r.r.r.r.r.r.0.9.4.3.2.<.*.*.o./ ! Y C c z d i 5 3 & & = ",
"& & = 3 8 i k M V U ^ ' ..$.:.3.4.4.4.9.e.r.r.r.r.r.r.r.w.w.9.8.4.4.1.*.#.o.' Q Y F M k i 9 3 & = & ",
"= & & 3 9 k n C U _ { o.@.:.1.7.e.e.e.e.e.r.r.r.r.r.r.r.w.w.w.0.q.q.q.1.*.#.o.{ _ U C c f e = @ & = ",
"& & & 3 9 k M F R ` { O.&.>.4.e.e.r.r.r.r.r.r.r.r.r.r.r.r.r.w.w.r.r.q.4.>.*.O.{ ` R F M k e 3 @ & = ",
"& & & 3 9 k M F R ` { O.&.:.4.e.r.r.r.r.r.r.r.r.r.r.r.r.r.r.r.r.r.r.q.4.>.*.O.{ ` R F M f e 3 @ = & ",
"& & & 3 r f M F R ` { O.&.:.4.e.r.r.r.r.r.r.r.r.r.r.r.r.r.r.r.r.r.r.r.4.>.*.O.{ ` R G M k r 3 & & = ",
"& & & 3 r f M F R ` { O.&.>.4.e.r.r.r.r.r.r.r.r.r.r.r.r.r.r.r.r.r.r.q.4.*.*.O.{ ` R A M f r = & = & ",
"= & = 3 9 f M F R ` { O.&.,.4.e.r.r.r.r.r.r.r.r.r.r.r.r.r.r.r.r.r.r.q.4.>.*.o.{ ` R A M f r 3 & & & ",
"& = & 3 y k M F R ` { O.&.:.4.e.r.r.r.r.r.r.r.r.r.r.r.r.r.r.r.r.r.r.q.4.>.*.O.{ ` R G M k r 3 & & = ",
"& = = = 9 f c A U _ [ o.$.-.3.7.w.w.w.w.w.w.r.r.r.r.r.r.r.w.r.w.e.q.7.4.*.$.o.] _ U C m f r = & = & ",
"= & = 4 9 d k M F Y ^ ' ..$.*.3.4.4.7.9.w.w.r.r.r.r.r.r.w.w.9.9.4.4.4.*.$...' ^ U C m k i r 2 & & = ",
"& & = = 8 t d l M V F ! ( X.$.:.,.1.4.4.9.w.r.r.r.r.w.r.w.9.4.4.1.>.*.+.....^ Y C m k d t 5 3 & = & ",
"& = = = 4 9 w d f x S H ! ..o.#.&.:.1.4.9.w.r.r.r.r.w.w.w.8.3.1.>.*.$.o./ ! J S x k i i 9 5 & & 3 & ",
"= & & & 4 5 9 9 t d x S J W ] O.O.&.>.1.3.9.r.r.r.r.r.r.e.4.1.-.*.@. .] ^ J S z d t r 8 5 4 = = & = ",
"& 3 & & = = 4 5 5 8 d z D Y E ]  .O.-.>.3.r.r.r.r.r.r.r.e.2.,.*.@.{ [ E J B l d 8 6 4 4 = = & & = & ",
"& & & & = $ % = = = r d c C I _ ]  .@.-.3.9.r.r.r.r.r.9.8.2.-.@. .[ _ I A c d 9 % % % % $ & & & & & ",
"& & & & @ $ $ . % = 5 i k M C I ^ ] ..$.-.1.3.3.3.4.4.4.2.-.$...] E U C n k i 8 = % % % $ = $ & $ . ",
"& @ @ @ . & @ @ & = 5 9 d l M A J ^ / ..#.-.>.>.>.>.>.>.-.@...( W Y A n z d t 5 = & . = & $ . @ = @ ",
"      @ . $ % % = = 4 9 w d l l S H W ( o.#.&.&.&.&.&.&.@.../ ! J B c k d w 9 5 = = $ % $ $ $       ",
"          $ . O & = 3 4 9 w d d z S H ^ ( O.O.O.O.O.O.O.O./ ^ H S z d t t 9 5 5 & & % . .           ",
"            O $ @ & = 3 4 4 6 9 a z S J ^ [ { { { { { { [ E J B z i 9 8 5 4 = = & = % .             ",
"            @ . & = = & = = = = 8 d c B I _ ` ` ` ` ` ` ` Y C c d 9 = = = = = & = & . @             ",
"              & & & = . & & = & 8 t k n A I R R R R R R U F c k t 5 = % & & . = $ & @               ",
"                & @ & . & & & & 5 9 d k M A A A G A G G C M z i t 5 & . @ & % % $ @                 ",
"                  @ @ @ = & & & 2 9 t f k c M M M M M M c k d r 8 2 @ $ & = . . @                   ",
"                      $ $ & $ $ 3 3 9 t p d g f d k d k f p r r 5 4 $ $ = $ $                       ",
"                        . . @ = & 3 5 5 9 e e e e e e e r 9 5 5 = = & = . .                         ",
"                        . . . $ = 3 = = 3 3 3 * 3 3 3 3 3 3 = 3 = & & $ . $                         ",
"                        $ = $ & & & & & @ @ @ @ @ @ @ @ & & & = & = & $ @                           ",
"                        $ @ $ & = & & = & & = & = & & = & = = & = & & & &                           ",
"                        . @ . & = & = & = & & = & = = & = & & & & = & & &                           "
};
