/* XPM */
static char *_df54706a77e4c89b1dca441ac2f764c325EZ2XYOuhnmjIt[] = {
/* columns rows colors chars-per-pixel */
"50 50 157 2 ",
"   c None",
".  c #463836",
"X  c #483C32",
"o  c #42333A",
"O  c #4D4333",
"+  c #514135",
"@  c #5F4B3A",
"#  c #6A5B3D",
"$  c #70643C",
"%  c #4C3C42",
"&  c #5B494B",
"*  c #785E4D",
"=  c #775F5A",
"-  c #7B6441",
";  c #796452",
":  c #877742",
">  c #8C7B44",
",  c #92774C",
"<  c #806E6C",
"1  c #8D7D7C",
"2  c #968147",
"3  c #A4934A",
"4  c #A9924C",
"5  c #A79257",
"6  c #BD965C",
"7  c #BCA354",
"8  c #AF8765",
"9  c #B18F7B",
"0  c #C6AF53",
"q  c #C6B353",
"w  c #CBB555",
"e  c #D5BF56",
"r  c #D6B65E",
"t  c #D5BF5C",
"y  c #C3B175",
"u  c #E4B46A",
"i  c #E9B26F",
"p  c #EEBF6E",
"a  c #E4A672",
"s  c #E5AA75",
"d  c #E8AF71",
"f  c #E5AD7B",
"g  c #E7B075",
"h  c #E9B372",
"j  c #ECBB74",
"k  c #E6B17D",
"l  c #E8B67C",
"z  c #EABD7B",
"x  c #DCC758",
"c  c #DDC958",
"v  c #E4CD5B",
"b  c #E9D35B",
"n  c #F3DD5E",
"m  c #EEC766",
"M  c #EFC26C",
"N  c #E2CE6A",
"B  c #F0C56B",
"V  c #F2CC6E",
"C  c #EFD460",
"Z  c #F6D466",
"A  c #FADD65",
"S  c #F5D36B",
"D  c #F7D96B",
"F  c #F8DD6C",
"G  c #EEC376",
"H  c #EEC57A",
"J  c #EEC97B",
"K  c #F1CB74",
"L  c #F1CE79",
"P  c #F4D475",
"I  c #F6DD76",
"U  c #F4D57B",
"Y  c #F5DC7C",
"T  c #FEE762",
"R  c #FEE867",
"E  c #FBE46B",
"W  c #FEE96D",
"Q  c #F7E077",
"!  c #F9E274",
"~  c #FEE974",
"^  c #F7E07B",
"/  c #F8E178",
"(  c #FEEC7D",
")  c #A29380",
"_  c #B9A399",
"`  c #E6B483",
"'  c #E7B986",
"]  c #E9BD84",
"[  c #E6B788",
"{  c #E7BA8B",
"}  c #E8BE89",
"|  c #E6BE92",
" . c #E8BF91",
".. c #C3B6AF",
"X. c #ECC483",
"o. c #EECB84",
"O. c #E9C28C",
"+. c #EDCC8A",
"@. c #F2CC8E",
"#. c #EFD28C",
"$. c #F1D786",
"%. c #F4DD85",
"&. c #F4DD83",
"*. c #F0D38B",
"=. c #F0D589",
"-. c #F0D78E",
";. c #F0D58A",
":. c #F2DA89",
">. c #F1DB8F",
",. c #F2DC8C",
"<. c #F2DA8B",
"1. c #E7C092",
"2. c #E7C092",
"3. c #E8C393",
"4. c #E8C395",
"5. c #E9C797",
"6. c #E8C497",
"7. c #E9C494",
"8. c #EBCB93",
"9. c #ECCD92",
"0. c #EAC895",
"q. c #EBCB95",
"w. c #EACB97",
"e. c #ECCF97",
"r. c #EBCB95",
"t. c #E8C79A",
"y. c #E8C598",
"u. c #E9CA9A",
"i. c #EBCC99",
"p. c #EACC9A",
"a. c #ECCF99",
"s. c #EACB99",
"d. c #E0D294",
"f. c #EED390",
"g. c #EDD295",
"h. c #EED596",
"j. c #EED494",
"k. c #EFD895",
"l. c #EFD897",
"z. c #EDD49A",
"x. c #EBD29C",
"c. c #ECD29C",
"v. c #F0D990",
"b. c #F0DA93",
"n. c #FDEC85",
"m. c #FAE28D",
"M. c #FDEC9B",
"N. c #FEF09C",
"B. c #CFC6B0",
"V. c #EBD3A5",
"C. c #F7DFAB",
"Z. c #EBD2BB",
"A. c #F9EDAD",
"S. c #FFF5BF",
"D. c #FCEEC1",
"F. c #F2E7D7",
"G. c #F7F1D5",
/* pixels */
"                                                                                                    ",
"                                          a a a a a a a a a a a                                     ",
"                                        a a a a a a a a a a a a a                                   ",
"                                      f f f f g h i i i h g d f f f                                 ",
"                                    f ` ` [ z G M M M M M j z } ' ` l                               ",
"                          a a a a s f [ 2.y.+.J S Z Z S Z L o.q.6.[ f f a a a a                     ",
"                          s s s s s g ] q.x.#.Y E T T T T I <.z.i.O.l s s s s s s                   ",
"                        f ` ` l h j G J #.v.m.! E T T T T ! Y >.#.o.j p j l ` ` `                   ",
"                      f ` { 2.X.H V S P Y Y I E T T T T T E ! ^ Y P S V K X.O. .[ f s               ",
"                    a f [ 4.i.j.U F A A T E E T T T T T T T T E E E T D Y *.i.y.{ ` s a             ",
"                  f f ` ] 8.j.:.^ E T A A Z Z v x x b n T T T T T T T T Q %.h.g.| ` l f             ",
"                f ` [ O.+.#.&.m.! E T A Z m r 7 3 3 q v T T T T T T T R E ^ &.;.+.O.{ ` `           ",
"            a a ` { 6.q.*.&.Q E R T A S B i 6 , $ $ 2 x T T T T T T T T T E ! Y $.8.q.| ` f a       ",
"            a s ` } i.h.%.I E T T T A S z f 8 * X O > q n T T T T T T T R E R Q :.g.s.2.[ s a       ",
"            a s l X.#.<.Y ! T T T T E U @.| ) ; o X : q T T T T T T T T E ! Q Y $.8.2.[ ` s a       ",
"            a s h H U ^ ! R T T T T W m.C.Z._ < . O > q T T T T T T T T E Y <.*.+.O.' ` s s a       ",
"            s s j V E R T T T T T T ~ A.S.F...= & & 2 w T T T E T T T E Y %.h.w.O.` f s s a a       ",
"          s f k j N T T T T T T T T W M.S.G.B.9 ; ; 3 x T T E E E F A Z P #.s.6.{ l f a a a a       ",
"        f ` ' } X.P T T T T T T T T W n.N.A.d.y 5 3 7 v T W Q &.Y U K B G X.} { [ f a a a a         ",
"      a f ` 2.5.#.Y T T T T T T T T R ~ ( n.Q C c x b n T ! &.>.f.o.j h h l l ` `                   ",
"    a a f ' 5.x.k.&.E T T T T T T T T T T T T T E T T T E ^ <.x.t. .l s a a a a                     ",
"    a a s z o.v.%.! E T T T T T T T T T T T T T T T E ! ^ &.+.d.4.[ ` s a a a s                     ",
"    a a s G J Y / E T T T T T T T T T T T T T T T T ! &.v.#.O.] [ ` f                               ",
"    a a g M S E R T T T T T T T T T T T T T T T T E ^ k.x.5.} k f s                                 ",
"    a a h p Z T T T T T T T T T T T T T T T T T T ! Y h.V.t.[ s a a                                 ",
"    a a d p Z T T T T T T T T T T T T T T T T T T E m.k.V.t.[ f a a                                 ",
"    a a i p Z n T T T T T T T T T T T T T T T T T E m.k.V.y.[ f s a                                 ",
"    a a d p S A T T T T T T T T T T T T T T T T T E ^ k.V.y.[ f s s                                 ",
"    a a d j L Y ! W T T T T T T T T T T T T T T T E ! %.v.+.O.] ` ` f                               ",
"    a a d z o.;.&.Q E T T T T T T T T T T T T T T T ! ! ^ $.+.0. .[ f s a a a a                     ",
"    a a f ' 6.c.>.^ T T T T T T T T T T T T T T T T T T E ^ <.x.t. .l s a a s a                     ",
"      a f '  .w.%.W T T T T T T T T T T T T T T T T T T T ! &.k.f.X.z h h k f ` f                   ",
"        f ` [ O.X.P E T T T T T T T T T T T T T T T T T T T R ^ ^ P N K G z } [ ' f s a a           ",
"          f f k G V A T T T T T T T T T T T T T T T T T T T R W E ! A D P *.w.y.{ ` s a a a a       ",
"            s d j V D R R T T T T T T T T T T T T T T T T T T T T T T E ! <.h.i.O.` f s a a a       ",
"            a a h H U Q ! T T T T T T T T T T T T T T T T T T T T T T T ! ^ ,.#.+.} ` ` f s a       ",
"            a s k X.*.:.Y ! T T T T T T T T T T T T T T T T T T T T T T E ! Y Y =.8.3.[ ` s s       ",
"            a s l O.i.h.%.Q R T T T T T T T T T T T T T T T T T T T T T T E E ! :.g.s.2.` s a       ",
"            a s ` { y.i.*.Y Q E T T T T T T T T T T T T T T T T T T T T T E ! Y $.8.s.| ` f a       ",
"                ` ` { O.+.;.%.Y W T T T T T T T T T T T T T T T T T T T ! ^ ^ <.o.O.{ [ ` s         ",
"                  f f ` O.8.h.,.^ E T E T T T T T T T T T T T T T T T T ! &.b.e.O.] f f             ",
"                  a s f [ 6.i.*.Y F T T E T E T T T T T T T T R T F T F I ;.i.s.} ` s s             ",
"                    a f [ { 3.X.J K S P P ^ ! E T T T T T E Q / Y P S V K +.3.| [ f s               ",
"                        ` ` ` z h p G J #.>.&.! R T T R T ! ^ ,.#.o.G p j l ` ` `                   ",
"                          s s s s s h ] 8.z.#.Y E T T T E I %.z.9.O.l g s s s s s                   ",
"                          a a a a s f [ 2.s.+.U Z Z Z Z Z U o.q.7.} ` s s s a a                     ",
"                                    f ` [ [ X.z G m M M B j z { [ ` f                               ",
"                                      f f l g h i i i i h h h f l f                                 ",
"                                        s a a a a a a a a a a a a                                   ",
"                                          a a a a a a a a a a a                                     "
};
