/* XPM */
static char *_a6fd95b809c4394a2c7a65a3d6c6115EhHocfPj2gsPOm1R[] = {
/* columns rows colors chars-per-pixel */
"50 50 31 1 ",
"  c #000001",
". c #02010C",
"X c #030215",
"o c #04031A",
"O c #050324",
"+ c #07042D",
"@ c #070536",
"# c #090533",
"$ c #07043B",
"% c #090539",
"& c #0A0544",
"* c #0B064C",
"= c #0A084A",
"- c #0C0653",
"; c #0D0856",
": c #0D075B",
"> c #0D085B",
", c #0F0766",
"< c #0F0864",
"1 c #0F0768",
"2 c #0F086B",
"3 c #100760",
"4 c #100867",
"5 c #10076C",
"6 c #10086E",
"7 c #0F0975",
"8 c #0F0A7F",
"9 c #110976",
"0 c #120A7D",
"q c #0F0A80",
"w c #120A81",
/* pixels */
"&*-*****==*****&*====***=****=***=**=***==***-*-**",
"&****--**=*=&********=*&*****&*=*=*&******-**-***-",
"*-*-&OX                                   XOOO@<*-",
"**-Oo&<6666629666662629222666662666622666662<&Xo:*",
"**&X<0wwww0wwww0w0ww0ww0ww0www0w0www8wq0wq0wqw>.+4",
"*;o$00ww0wwwwwwwwwwwwwwwwwwwwwwwwwwwwwwwwwwwwww#.9",
"&6 :0wwwwwwwwwwwwwwwwwwwwwwwwwwwwwwwwwwwwwwwwww> 6",
"#,.-wwwwwwwwwwwwwwwwwwwwwwwwwwwwwwwwwwwwwww0ww0> 4",
"#, :wwwwwwww0w0w0w00w0w000ww0w0w00w0ww0wwwwwww8: 4",
"#, :0wwww0www0wwwwwwwwwwwwwwwwqwwwwwwwwwwwwwww0;.4",
"#1 :wwwwww0;;;---;;;;-;;;>;;;-;-;-;;;;;:w0wwwww: 4",
"#1 :wwwwww6X.  .   .         .  .    . X70wwww0; 4",
"#, :wwwwww4X#>3;,<::3:3<::<3::<:::<:>>#.98wwww0> 4",
"#, :wwwwww4.=<%%%%%%%%%#%%%%%%%%%%%%$<*X98wwwww>.4",
"#1 :wwwwww4.** .                     **.0qwwww0: 4",
"#, :wwwwww4.**      .            .   ==X7qwwww0; 4",
"#4 >wwwwww4.;=                       **.9qwwww0> 4",
"#4 >0wwww06.==                       **.9wwwwww> 4",
"#4 3wwwww04.;=                       **.9qwwww0: 4",
"#4 >wwwwww6.==                       =*.7qwwww8; 4",
"#< :wwwwww6.=*                       **.9qwwwww: 4",
"#4 :0wwwww4.==                       **.9qwwwww: 5",
"#< :wwwwww<.;=                       -*.9qwwwww: 4",
"#1 :www0ww6.==                       **.9qwwwwq: 4",
"#1 <wwwwww4.==                       **.9wwwww0; 5",
"#, :0wwwww1.-=                       **.9wwwwww: 4",
"#, :wwwwww1.=*                       **.9wwwww0; 4",
"#, :wwwwww1.-=                       =*.90wwww03 5",
"#, :0wwwww4.*=                       **.90wwww0; 4",
"#, :wwwwww4X-=                       **.9wwwww03.4",
"#4 :wwwwww4.*=                       **.0qwwww0; 4",
"#, 30wwwww4.*=                       **.7qwwww03 4",
"#4 :0wwwww4X**                       **.9wwwwww>.4",
"#, :wwwwww4.**                       **.98wwwwq> 4",
"#1 :wwwwww4.-=                       **.9qwwwww> 4",
"#1 :0wwwww4.*=                       **X9qwwww0> 4",
"#, <wwwwww<.*=.. . . . . . . . . . ..**.9qwwww0> 5",
"#, :0wwwww<X=6;>::>>>:::>>::>>::>>:::2&.0qwqw00: 4",
"#, :wwwwww4.o@$$@@@@$@###@@@@@@@#@@@%@oX9qwwww0: 4",
"#, :wwwwww6OooXXXoXXoXoXoXXoXXoXoXXoXXXO7q0www0> 4",
"+4 :wwwwwww00w00000000000w00000w0w000000ww0wwww> 4",
"#4 :wwwwwwwwwwwwwwwwwwwwwwwwwwwwwwwwwwwwwwwwww0> 4",
"#, :wwwwww0w0wwwwwwwwwwwwww0wwwwwww00wwwwwwwww0> 4",
"#,.:wwwwwwwwwwwwwwwwwwwwwwwwwwwwwwwwwwwwwwww0ww> 5",
"$9 *wwwwwwwwwwwwwwwwwwwwwwwwwwwwwwwwwwwwwwwww00* 5",
"*6X+00wwwwwwwwwwwwwwwwwwwwwwwwwwwwwwwqwwwww0wwwOX9",
"*;=.&9wwwwwwwwwwwwwwwwwwwwwwwwwwwwwwwwqwwwww00& **",
"**;%.o%&&*&&&&&&&&&*&&&&&&&&&&&%&&&&&&*&&&&&%X.$--",
"-**:-o....  ..  . .  .. .. .. ...  .  .  . . o;;**",
"-***-w0999909900000909099999990909090000099009-***"
};
