/* XPM */
static char *_2ced59a097a48098a516894e3be4017ko0KVUK1P3z0C2fM[] = {
/* columns rows colors chars-per-pixel */
"50 50 69 1 ",
"  c #040301",
". c #0B0B04",
"X c #130F05",
"o c #131104",
"O c #1C1C07",
"+ c #19130D",
"@ c #1D1C0B",
"# c #23230B",
"$ c #2A2B0A",
"% c #413616",
"& c #4A3613",
"* c #4D4511",
"= c #5D4B16",
"- c #4E5313",
"; c #525614",
": c #5C5615",
"> c #555915",
", c #5C5B16",
"< c #5B5F18",
"1 c #634C1A",
"2 c #615C15",
"3 c #635C19",
"4 c #6A5B1C",
"5 c #5E6117",
"6 c #5E6218",
"7 c #646217",
"8 c #636519",
"9 c #6C651B",
"0 c #66691A",
"q c #6B6C1B",
"w c #70671D",
"e c #736C1C",
"r c #786D1D",
"t c #6E711C",
"y c #72741D",
"u c #7B731E",
"i c #77781F",
"p c #78791F",
"a c #695723",
"s c #695B2C",
"d c #6C5635",
"f c #6E5934",
"g c #6D5339",
"h c #725D36",
"j c #715A38",
"k c #656322",
"l c #696522",
"z c #6D622A",
"x c #756C21",
"c c #72672A",
"v c #746B29",
"b c #757521",
"n c #7B7423",
"m c #777820",
"M c #7C7B22",
"N c #7D752A",
"B c #7E7C28",
"V c #756433",
"C c #776832",
"Z c #7B6C36",
"A c #807623",
"S c #807F24",
"D c #827E2A",
"F c #837B33",
"G c #818024",
"H c #85822C",
"J c #88832F",
"K c #878331",
"L c #898531",
/* pixels */
"  X11wMmppuuuurytbHLLLLLLLJGGLLLLLLBq9qyppGJJKK#@.",
" %a44xMmppuuAAMnyMDKLLLLLLJGHLLLKLLDq0qtppBGHHHGk.",
"+byyyymmuuAAAJJJSMyBLLLLLLLGHLLLKLKNq8qqq0tMSBMSB.",
"fciiMMMuAAAGSLLJGMMMJLLLLLLGSMHLLKAbqqqqqbBGGDSBMM",
"jjpymiiuGJJLLLLJGSSSSDFJLLHGuwnKLDx9qqqqtDLKLKGMMM",
"iddMmMMuGLJJLLLLGSuAAACzHHGGy9xnxr499bMBBKLKLKHMBM",
"yiMymMMSJLLLLLLLDAuAuAGGGGMGu9w4w9994nLKKKLLKHDMMM",
"yyyMmSHJLLLLLLLJSAuuuAGGGGMbyqeuyew49nLLKKKLHDSMMM",
"qyypBHLLLLLKLLLLAAAuupMppppyytppiiq99nKKKKZVGMBMMM",
"ytyMKLLLFKJHJLLLJAAuyyiyppytttppMpyy9NKKLKHVGMGMSM",
"tybDLLLLZVHMJLLLLJSAttyyyyyyyypppMiy9bBHLKKVGBBmpp",
"tbHJLLLLKCMGJLLLLLJStyttyppppppppppyyeyDLKKCKKmqtt",
"tbHLLLKhgddgdjJLLLLJpyyyypppppMSMMMiittBLKLKLKDBtt",
"0bHKLLKddVptMGJJLLLJSptypppSpppGGGGitttBKLKLLKKHbt",
"0tbBHGHVhMMyMGGHGJGGGpyyppppppGGBGGGMttbBHLKLKKKBi",
"q00yMMGGSSMtbMGGGGGGGptyppppGSSGGGGGGMytyGKKHKHHSM",
"qqqytpGGMMpyypMSGGGGGyqqqiMmMSSSHJJJJGMMMSGSGSDSMB",
"tyyptpGpGMpyttpSGGGGMdssqyymMMSSKLKKKJGSMMSMMMMMMB",
"GHGGpGGGMpyttyppGpppvds4sssttypSHLLLLLJGMSSMMMMMMM",
"KKGGGGGGMpiyttypppppptq000qettiMBHKLLKJHGSSSMppbyt",
"KJJHMGGGMGpyttippppppt0000qtytytybHKLKLKLKHSbtt066",
"JJGSGGpGGGMpyqttpppyttq0qqqqypppppSHLLKKKLKHMtt000",
"JDSMMGpGGGGGi00qtppt0q000qqqyGSSSGSHKLKLLKLKBttt0t",
"SMuuupGGGGGGyqqqqtqq00qqqqttySSGHJHJLLLKKLKKBbtttq",
"SueeeAAAGpGppyqqq0q00qqtttyypGMGJKJLLKKHDHHHDMbttq",
"SurwwruuGGppyyttqq0q0qttyypMMGGGJLLLJLKBbBSSMMMmtq",
"GMnnAeeupupyytytq0q0qttbippGGpMpDLLKLDDbtMSMSMMMtq",
"HHHJSAeerretttttq0000ttMMMMMGSyyDLLKKSyqtMMMMMMMyt",
"JDJJJAeeeeetyqqqqq0qqbMHHHHHGGuwxnnNBbtqtqbMMMMMyq",
"JJJJJAeetttttyq0000qtDLLJLLLHpr9www9qtqt079bMMMMtq",
"JJJJHDurttqqqqq000qtyMLLLLLLSreqqqq050qtqq999llk86",
"JJJJHJGyttqq0000qqtyyDLLLLKDn9qtttq6-5qqqqq33<55>>",
"DKJHHKHMiq00000qqtttySLLKKHmyetqtq5>>><8tqqq00,>>>",
"DJHDNChBpq000000ttttypGSHHBbyyyytq>--;-8qtqqq0<;->",
"SMMSGMVmpq000000tttteyyybyttpppppt<;;-;7qqqq8<,;->",
"bbyMBMMbzl0000887qttttttqqtqySGGSp8<;;;200006>>>>>",
"080yBMMcs800722227tyttq97qtqypSpMMMq;>:222<<6<<<>>",
"888qcttq80872222278q79922qqtyGMSMMMq;>22:2<<<<<<>>",
"8888d606q0722277585522222qqtppppSMSt>,:,2,<<<<<>>>",
"8888d6006072227655777222299qyrpSMMpy03<3,<<6<<<6>5",
"555800000072222567668<,2777qqetupMMbtq66<<<<<<<<5>",
">>>588806072:>5566667<,qettqqqteeeqtbtt6<<6<<<<<>;",
";;->58080852,>556665558quyytetqqq9lttby6<<6686<<;-",
"-;---5886722,>556655>8tyyyityttqqqttbty6<660006<--",
"-->>:,2252,2,>,,5>5><8tbppyytpq8qttbyyy6>560qq065;",
"--,,:222:>>>>>>>>>>>>8bbyyiyit5>0ybtttt5-5600qq066",
"-;:,::2::>>>>>>>>>>>>50tybyyq7>;qytytiq5-;50qqq006",
"$;:222::2>>>>>>>>>>>>>>8ttey5;-;8tttttl5-->80qqq0$",
"O*==2:::>>,5555855>>>;>,5555>---<5ttt0>>-->8qqqq-o",
"XX&=:22>;;,7078085>>>>>>;>;------<0ty6---->8qq0O#o"
};
