/* XPM */
static char *_841e00125e94752c5bb33f5d06f6d0cK0dTIjUz8nlC1uOA[] = {
/* columns rows colors chars-per-pixel */
"50 50 131 2 ",
"   c #5F402B",
".  c #61422D",
"X  c #644531",
"o  c #664935",
"O  c #684B37",
"+  c #6A4D39",
"@  c #6E523E",
"#  c #73533D",
"$  c #6F5440",
"%  c #705642",
"&  c #735946",
"*  c #795B46",
"=  c #765C4A",
"-  c #7A5F4C",
";  c #7B614E",
":  c #6E645A",
">  c #7C6552",
",  c #7F6854",
"<  c #72665B",
"1  c #77695E",
"2  c #7C6A5B",
"3  c #5A737F",
"4  c #80654F",
"5  c #806755",
"6  c #816A56",
"7  c #836D5B",
"8  c #86715D",
"9  c #89725F",
"0  c #877161",
"q  c #8B7564",
"w  c #8B7966",
"e  c #8E7C6B",
"r  c #917E6E",
"t  c #917F70",
"y  c #8F806D",
"u  c #91816E",
"i  c #948473",
"p  c #958976",
"a  c #968778",
"s  c #988778",
"d  c #978B78",
"f  c #998D7C",
"g  c #9D8D7E",
"h  c #9E8F7F",
"j  c #9B907F",
"k  c #6C7C81",
"l  c #47819F",
"z  c #48819F",
"x  c #788181",
"c  c #6B8D9B",
"v  c #73939E",
"b  c #7A9299",
"n  c #4C85A2",
"m  c #538BA6",
"M  c #588EA8",
"N  c #5D91AA",
"B  c #648DA1",
"V  c #6790A3",
"C  c #6C93A6",
"Z  c #6195AD",
"A  c #7996A2",
"S  c #7C99A3",
"D  c #7298A8",
"F  c #679AB0",
"G  c #6C9EB2",
"H  c #7EA2AF",
"J  c #878D87",
"K  c #8A8A84",
"L  c #8A8F88",
"P  c #968D83",
"I  c #9A8F80",
"U  c #9D8E80",
"Y  c #9D8F80",
"T  c #9E8F81",
"R  c #8D928A",
"E  c #919086",
"W  c #9C9081",
"Q  c #9E9082",
"!  c #9D9282",
"~  c #9D9385",
"^  c #9D9484",
"/  c #9D9485",
"(  c #9E9486",
")  c #9F9587",
"_  c #949389",
"`  c #9F9789",
"'  c #869699",
"]  c #899D9F",
"[  c #949E9B",
"{  c #A09283",
"}  c #A19384",
"|  c #A19485",
" . c #A09686",
".. c #A29687",
"X. c #A29588",
"o. c #A49788",
"O. c #A19989",
"+. c #A1998B",
"@. c #A2998A",
"#. c #A59889",
"$. c #A5998C",
"%. c #A59A8D",
"&. c #A69B8E",
"*. c #A89D8F",
"=. c #A79E90",
"-. c #A89F90",
";. c #A99F92",
":. c #9DA19B",
">. c #A9A093",
",. c #ABA395",
"<. c #ABA296",
"1. c #ACA395",
"2. c #ACA597",
"3. c #A5A299",
"4. c #ADA599",
"5. c #AEA598",
"6. c #ADA698",
"7. c #AEA799",
"8. c #AEA59A",
"9. c #AFA69B",
"0. c #AFA89B",
"q. c #B0A89B",
"w. c #B0A89C",
"e. c #B0A99C",
"r. c #8CA5AC",
"t. c #94A2A4",
"y. c #99A5A6",
"u. c #9EAAA9",
"i. c #A7A9A4",
"p. c #AAABA6",
"a. c #B4ADA1",
/* pixels */
"+ & 2 ; ; = % & & & & * & & # & & & & & & & & = ; ; & & & = = ; ; * 8 & % % & % % % & * ; > = ; % O ",
"+ & & i <.4.2.2.1.4.4.1.>.;.1.5.2.2.2.1.4.5.2.2.2.2.4.5.2.2.2.4.5.5.2.1.>.;.1.5.5.2.2.2.4.q.h ; & O ",
"+ & e 4.4.4.4.2.5.<.5.;.j h o.4.5.2.2.4.4.2.2.4.2.5.4.2.2.4.4.2.5.5.2.*.{ { *.5.2.4.2.2.4.w.4.u & O ",
"+ & h 4.4.4.2.4.5.5.5.} u e h 1.4.4.5.2.5.2.5.5.4.2.2.5.5.4.5.5.5.5.5.{ r i $.5.4.2.4.2.4.w.4.f & O ",
"O & h 2.4.4.4.4.1.%.g s i i s P o.1.2.4.2.4.4.2.4.5.5.2.2.2.5.5.1.$.h h i a a U $.1.4.2.4.4.5.{ & + ",
"+ & f <.q.4.4.2.;.h q r s s r 0 s *.4.4.4.2.5.2.2.2.4.5.5.4.4.5.*.s 0 r P f e q h 1.4.4.4.w.5.j & O ",
"+ & h 2.q.4.1.%.} s q r T ( t 0 r U %.;.2.2.5.5.5.2.4.2.2.5.2.$.h r 9 i Q U t 0 i { $.1.5.q.4.j & + ",
"+ & h 2.q.2.%.s q r a I ` X.I d i q i o.4.4.4.2.4.5.5.2.5.2.o.i r r s I X.( f a r w s *.w.q.5.j & + ",
"+ & h 2.w.4.X.q 5 w } +.X.+.+.+.r 5 q U 2.4.2.4.2.5.2.2.2.q.j 9 5 t o.+.X.+.` ( e ; q ..4.q.4.P & + ",
"+ & h 2.w.4.X.q ; r ( ( P s ( X.t 5 9 h 4.2.4.2.2.4.4.4.q.4.h q 5 t +.U P s ( ( e > q ..w.q.q.j & + ",
"+ & f 2.w.w.o.q > e ( f t t s X.t 5 q T 4.2.4.4.5.2.4.q.5.5.U q 5 t %.P r t U X.q ; w ( q.w.<.f & + ",
"+ & P 4.;.} s r q t s s e e a P i w q i h %.4.4.q.q.q.2.%.h i w q t P t e e i s i 0 e s Q ;.=.f & O ",
"+ % h 4.( e q t d i t e q q e t i a u q q h <.w.w.w.w.4.s 0 0 t a i t e w q e t i a t 0 0 Q ;.d & + ",
"O % I 2.s 5 2 i X.s t e e t e t s Q s 2 - t 1.4.w.5.4.;.t - 2 s ( a e e t e e e i ` e > > i %.f & O ",
"X @ f ;.s 5 6 t ` U f s a a a a f ( a 7 - t %.$.%.=.;.+.e = 2 i ( U a f a a d f P ` e > > i +.p # o ",
"  + h ` i 5 5 i ` ` ` ` ` ` ` ` X.` i 7 - q U ( T } ( U q = 7 i ` ` ` ` ` ` ` ` ` ` e > ; u ..p + X ",
". + d $.s w w d ..! ! ..( ! ( O.` ` f e q i j ^ ^ W ! ! i 8 e d O.O.! ....! +.! +.O.d w w j ..i O o ",
". + d +.+.j d j Q ! ! ! ! j Q ! W W h f d j W Q W ^ W ^ j d f Q ! { j O.O.! j O.! ! Q d j +.( p O o ",
". @ d ` +.! W E ^ j ! j j j j j W W P W Q W Q j ^ ^ Q j ^ j Q Q ! ! j O.j { ! Q ! ! ! ` ( +.! i @ o ",
". + d ` $.! j W j j j j j j j j j W j W j j W Q Q j j W j Q W W ! h j j j ! j O.! ! ` ! +.+...d O o ",
". + d O.+.Q j j W j j j E Q j Q j W j j E j j j Q j j j j W j W j j j j j j j j ! ! ! ! ( +.+.p @ o ",
". @ j ` ( Q j j j j j j d j j d j j j j f h E f j j j j j j j j j j j j j O.j j ! ! Q ! ( +.+.d O O ",
". O d +.O.j j E j W h d f { f d j j j j j W W j j f E j j W j j j j j j j ) j j ! ! j Q ! +.+.d O o ",
". O h O.( Q d i e y e e e e e e e y e y y i f j j j d j p y e y e y e y u u y y u u p j ! +.+.j @ O ",
". @ j O.! j d w 6 6 6 6 6 , = < 6 6 , 6 8 u f j f f j d y 2 7 , , , , , , , 8 6 8 2 y p j O.` p O o ",
"  O d Q ! j p w 6 7 8 2 < : < 3 1 7 8 8 8 u d d f f j d e 8 8 8 , 1 < < < 2 2 8 8 , w p j O.O.p @ o ",
"  O f O.! j d i y p Q K 3 3 3 x x P j i y u d j f f f j i u i f p x 3 3 3 k J j d y d d j O.-.j O o ",
". @ d _ ! j j d j >.a.t.v n z 3 v i.0.+.f d j j j f j d Q d +.4.0.H z l l B t.a.-.j j j j O.j p O o ",
". + d ( ! j j f j *.q.y.D M m n S p.2.+.j d j d d j j j j j O.7.p.H N M m V t.a.-.j j d j j ,.j O O ",
". + d ! ! j j d j *.a.u.H F N m S p.2.+.d j d j j d d d d d O.7.u.r.G N M C y.a.-.j j j j -.j j O   ",
". + f ! ! f d f j O.2.:.] S v c ' 3.>.{ j d j d d d d j d d ! -.i.:.S V c b :.6.` j d j j j j p + O ",
". + p j ! j f f j j { _ E R L J E ( Q j d d d d j d d d j d j j j _ R p b f O.j j d j d j -.j p +   ",
". + d ! j j f f f f f f d f f d j p j j p j j p p j p p j p j p j p j p p j p p j p j j j j j j O o ",
". + j ! j f f d d d d d d d d d p j p p p p p j p p p j p d p p p p p j j p p j p j p j j j h p O o ",
". + d j j f d f d d d d d d d d p p p p j j p p p d p p d d d d p p p p j p j p p j p p j j j j O O ",
"  + j j j f d d d d f d d d d d p j p p p p p y y y y p p d d d j p p j p p p p j p p j j j j j O o ",
"  + j j j f d d d d d d d d d d j p p j p p u y > 4 y y p p p p p p p p j p p j j p d d j j j j O o ",
"  + f j f d d d d d d d d d d d p p p p p d d , * # y p p p p p p p p p p p p j p p j d j j j p O o ",
"  + j d j f p d d d p d d d d d j p p p p p y y * * y p p p p p p p p p p j p p p p d d j j j j O O ",
"  + j j j f p d d p d d p d d d p p p p p p y y * * 4 u u p p p p p j p p p p p d p p j j j j d O O ",
". + d j j j d p d d p d d p p d p p p p p y , , , , , , y p p p p p p p p p p p d p d j p j j j O O ",
". + d j j d p d p d d d p d p p p p p p y , # # y y , # , y p y p p p p p p p p d d p p j j j j O o ",
"  o j j j p d d d d d p p d d p p p y y y , ; y y y , ; , 8 y y p p p p p p p p p d p p j j j j O o ",
"  + d j j p p p p p p d p p p p p y y , # , y y p p y y , * * y p p p p p p p p p d p j p j j j O O ",
"  o p p d d p d p p p p d p p p p p y * # y y p p p p y 8 % , y p p p p p p p p p j p p p j j j O O ",
"  + p j j p p p p p p p p p p p p p y y , y p p p p p p y 8 y y p p p p p p p p p p p p d j j j O O ",
". # y p d p p p p p p p p p p p p p p p p p p p p p p p p p p p p p p p p p p p p p p p p p j j O . ",
"  o y p p p p p p p p p p p p p p p p p p p p p p p p p p p p p p p p p p p p p p p p p p j p p O   ",
"  o # y d d p p d p p p p p p p p p p p p d p p p p p p p p p p u p p p p p p p p p p u p p p # + . ",
"  o @ @ % % $ @ $ $ @ % % @ % @ @ # % @ @ @ @ @ % % @ @ @ @ @ @ # # # * * # * * ; 4 4 , 6 > > & O O "
};
