/* XPM */
static char *_88af8415a7e4fc3bc385ebcae074394quFSDfAJfsY4PnBq[] = {
/* columns rows colors chars-per-pixel */
"50 50 95 2 ",
"   c #502C17",
".  c #512F1A",
"X  c #52311D",
"o  c #543521",
"O  c #563926",
"+  c #583925",
"@  c #563E2D",
"#  c #5A3E2B",
"$  c #573F30",
"%  c #5A402E",
"&  c #554133",
"*  c #5A4434",
"=  c #5E4837",
"-  c #574638",
";  c #5B4639",
":  c #5D4A3C",
">  c #614C3C",
",  c #5D4E42",
"<  c #5D5246",
"1  c #5E5449",
"2  c #614F41",
"3  c #605246",
"4  c #615549",
"5  c #61554B",
"6  c #62574A",
"7  c #60544C",
"8  c #60564D",
"9  c #60574E",
"0  c #61574F",
"q  c #64574C",
"w  c #61584B",
"e  c #63584B",
"r  c #63594C",
"t  c #63594D",
"y  c #63584F",
"u  c #64584D",
"i  c #65594D",
"p  c #645B4E",
"a  c #695C4D",
"s  c #615950",
"d  c #615851",
"f  c #645A52",
"g  c #655C50",
"h  c #675C51",
"j  c #645C52",
"k  c #645C53",
"l  c #655C53",
"z  c #665C52",
"x  c #665E53",
"c  c #675E54",
"v  c #655F57",
"b  c #695E53",
"n  c #665F58",
"m  c #666057",
"M  c #696057",
"N  c #6A6156",
"B  c #6B6157",
"V  c #666158",
"C  c #676159",
"Z  c #676258",
"A  c #686359",
"S  c #6A6358",
"D  c #69635B",
"F  c #6A635B",
"G  c #69645B",
"H  c #6B675A",
"J  c #6C655A",
"K  c #6D655B",
"L  c #6C675A",
"P  c #69645C",
"I  c #6B645C",
"U  c #6B655C",
"Y  c #6A655D",
"T  c #6B675D",
"R  c #6C665D",
"E  c #6C665E",
"W  c #6D675F",
"Q  c #6D685C",
"!  c #6C695D",
"~  c #6E695D",
"^  c #6E6A5D",
"/  c #6C685E",
"(  c #726B5F",
")  c #6D6960",
"_  c #6E6960",
"`  c #6E6861",
"'  c #6E6A60",
"]  c #716C62",
"[  c #747166",
"{  c #767469",
"}  c #79756B",
"|  c #7C786E",
" . c #7D7A71",
".. c #817D73",
"X. c #828076",
/* pixels */
"/ / _ R _ _ R _ _ ` ` ` / ` R > _ _ _ ' ` / ` ! ' U ` ` G ` ! / U 3 x R / R ` U U / U ` R D K K G U ",
"R U R R R _ U _ U ` ` / ' ' / : _ ] _ _ / ` ' ' _ U U / U U / Y U 2 a U U U D _ U U U G R D G G G G ",
"D G G R U U U U U _ U U ' U G = _ _ / _ ` U _ U U U U U U U G / U 2 x U U U U P U G Y G D D D D G U ",
"D D D G Y U _ U U _ U U U _ V = U R _ R ` / / U U U U U Y G Y Y U 3 u U U U U U U Y G Y D D D D G N ",
"V Y V D Y Y Y V U U U U U U c @ U U P P R R U U U U U V G Y V G D = u U G K R G Y U U V U V P D V Y ",
"m n D D V D D U G D V U D G x @ Y U P P P U U U Y V Y U Y G Y Y D * t G D G D D G G U V D D c D c c ",
"m m m D D D D n D V D n D D c @ V P V P D U Y V V Y U U Y Y V U D * 6 V G G D D V G V V V P n D V V ",
"m m m n n n D V n D V D V V d O V V V D c D V V V V V V V V V Y D = 7 U R V D G G V G V V V n V V V ",
"m c m m m N V V V N V V V D 0 o m V m m V V V c V V P n D D c V V * 1 ^ G G G G H N m m m N m m c V ",
"< , 2 < < < 3 3 3 3 3 3 < < , @ 3 3 < < < < 1 < 3 1 < < 3 3 3 1 < * : < < < 3 < < 3 3 < < 3 3 < < : ",
"* = ; = ; = X O $ $ $ $ @ $ & 1 @ X & @ % & & & * $ @ @ @ & % % & : & % % % & @ @ % @ . % % & % % % ",
"/ / / / / Q o < 1 1 1 1 1 1 1 1 : & < < < < < < < < 1 1 < < 1 < < 1 1 1 < 1 1 1 1 1 < o e e e e t 3 ",
"/ / ! ! ! H O < 8 1 1 1 1 1 1 1 : & 1 < 1 < < < < 1 < 1 1 < 1 < 1 1 < 1 1 1 1 1 1 1 , O 1 t e t e < ",
"/ / Q Q Q H X < 8 1 8 1 1 1 1 1 , & < < < 1 < < < < 1 1 < 1 1 1 1 1 1 < 1 1 1 1 1 1 , o e t t e e 1 ",
"^ Q / Q ! H o < 8 8 1 1 8 1 1 1 < & 1 < 1 1 < 1 < < 1 1 1 1 < 1 1 1 1 < 1 1 1 1 1 1 , O e e e t e e ",
"H / Q / Q ! O 1 8 d 8 8 d d d 1 < - 1 1 1 1 1 d 1 1 d 1 1 d 1 1 t 1 1 m 1 1 d d d 1 < o e 1 e t t 1 ",
"Q / Q Q ( / + N V V c c n n n c 1 < V V U n V V V D D V V D n V n n n n U n n n n n f O e e t 1 e e ",
"^ Q Q ( Q / : 3 : , 1 8 3 3 8 3 < , d d t d f f c f f d 3 3 , 1 3 1 3 3 3 3 1 1 2 2 : $ e e e t a e ",
"/ ^ / / / ( > > 3 3 q q f q q q u t x x c c c c c c c 1 3 2 O * * $ * * * * * * * . * 1 t t e p p e ",
"^ / ( / / Q + c U R I D P P D P G V U V G G D D D n Y D U f $ , 7 7 8 1 7 7 7 7 7 O 3 y e t u p p e ",
"^ ^ ' ^ Q / % N P n n D n P n P V V D n V D D n D n V n n f ; 8 d d d d d d d d 0 o 3 u e e p p a e ",
"^ ^ ' ' ( / % N n D V n n P P n n D V n D n V n n n P n P f : 0 d d d d d d d d 0 O 3 u p e p p x e ",
"^ ] ( ^ ] / # n D n D n n n P n V V D D n n V n V D n D P f , 8 d d d d d d d d 0 o , u e p p x p e ",
"[ ' ^ ] ( / O N n D D V R n n n D n n n V D D D V n P n V n 1 0 d d d d d d d d d O , d e p m p x e ",
"{ ^ ^ ] ^ / O Q n n D n n n n n D n D n D P V V n P D D n b 8 d d 0 d d d d 0 d x X 3 r p p p p p e ",
"^ [ Q ( [ ^ O % $ > 7 7 7 q q 8 , : : : 1 3 3 3 8 0 d 8 8 8 3 8 8 1 1 8 8 1 : * @ X 3 e p m p u p e ",
"p G { { } > N S ` ` ` ` ] ] ` ` ` 2 > f n n n c c P P P D U U U D D D D P D c b 6 a % p S S N G H b ",
"= = : > > o Q ( ` ` ` ` ` ` ] ` ] q , n n P n n n D n n n n n n n V V D n n n n m K o + # * = = * * ",
"K ( K ] N # / ] I ` ` ` ` ` ` ` _ q 2 n n n n n n n n n n n n n n n n n n n n n x R O 3 e e p e e a ",
"] ] ] ] ( % / _ ` ` ` ` ` ` ` ` _ 0 3 n n n n n n n n n n n n n n n n n n n n n V U O u x p p N b [ ",
"] [ ] ] [ # R ] ` ` ` P ` ` ` ` _ f 7 n n n n n n n n n n n n n n n n n n n n n m R # u t c x N N { ",
"] [ ] [ [ # ` ` ` ` ` ` ` ` ` ` _ f 7 n n n n n n n n n n n n n n n n n n n n c V / O u N x b a [ } ",
"[ [ [ [ [ a > K / / _ ` ` ` ` ` P 3 7 n n n c n n n n n n n n n n n n n n n n n n > : b c N u / [ } ",
"[ [ [ [ [ [ a * ; , , 3 < 7 3 3 8 , 3 0 0 0 8 7 8 7 2 q , : ; : 3 f 1 d 8 8 2 * @ ; a b N N N ( [ ..",
"{ [ [ [ [ [ = = : 2 , 2 3 7 7 3 2 0 n n n P n P P f n P f q $ f c n P n n c c 8 q * u B x N / [ { } ",
"{ [ { { [ [ # a c D c n f f n f c c D D P n P n n P n P P f ; U P P n P P n P n ` + u c N Q / [ { } ",
"{ { { { { [ # N n n n n n n n n n n n n n n n n n n n n n c 3 n n n n n n n n n / O e N N / [ { { } ",
"{ { { } { [ # N I n n n n n n n n n n n n n n n n n n n n f 0 n n n n n n n n n _ + r Q N ( { { { } ",
"{ } { } } [ # N n n n n n n n n n n n n n n n n n n n n n n 1 n n n n n n n n n ] O a G / { { { } | ",
"{ { } { { { + D n n n n n n n n n n n n n n n n n n n n n c , n n n n n n n n n R O u / [ { { { [ } ",
"} } } { { { # u n n n n n n n n c n n n n n c n c V n n V t ; V n n n b n n n n ] O b } { { { { [ | ",
"} } | | } } K = # # # # # # > 3 # # @ # # # # # @ # # # # # O # # 2 > # # # # # # N ] { { { { { } ..",
"} } } | } } { ] ] ` ] ] ( ] B # ( ( ] ] ] ( ( ( ] ( ( ( ( ( ( ( ] > b ( ] ] ] / ( [ { { { { { { } ..",
"} | | } } } } { | } } } { { [ a { { { { { { { { { } { { { { { { } b / { { { { { { { { { { { { { } | ",
"| { | { | } } | } } { { { { ] a { { { { { { { { { { { { { { { { [ b ( { { { { { { { { { { { { } ..H ",
"X.X.X.X. . . . . . . .....| | b  . . . . . . . . . . . . . . . ...b ] .. . . . . . . . .| .. . ./ t ",
" .}  .| } } { } { } | { { } ] a } } } { { { } { { } { { } { { [ | b ] } { } } { { } } { } } | { ' 1 ",
"m m m D D c n n n n c n n c b u c n n n n n V n c D c n m m V V c q b c V n n c n n n c D V V R ` U ",
"V x m x c m m j m j m m m j 1 % V m V m m V m m V V m m m m V m c ; u b c x c c f c d c V c d V c U ",
"o o o o o X o o o o X o o o X   o X o o X X X X X O X o X X o o X   X o o o o o o o o o o o o o o o "
};
