/* XPM */
static char *b98e9ff1c65244f8ba45400ac7eede3dTJM5gbYw3p7sw591[] = {
/* columns rows colors chars-per-pixel */
"50 50 93 2 ",
"   c #757166",
".  c #767267",
"X  c #777368",
"o  c #787469",
"O  c #78746A",
"+  c #79756A",
"@  c #7A766B",
"#  c #7A766C",
"$  c #7B776C",
"%  c #7B776D",
"&  c #7B766E",
"*  c #7C776F",
"=  c #7D7971",
"-  c #7F7B72",
";  c #817D73",
":  c #817E75",
">  c #827E75",
",  c #827F76",
"<  c #838076",
"1  c #858379",
"2  c #868379",
"3  c #878379",
"4  c #878479",
"5  c #878579",
"6  c #878679",
"7  c #87847A",
"8  c #87857A",
"9  c #87847B",
"0  c #87857B",
"q  c #888679",
"w  c #88857B",
"e  c #88867A",
"r  c #88867B",
"t  c #89877B",
"y  c #88857C",
"u  c #89867C",
"i  c #89877C",
"p  c #89867D",
"a  c #89877D",
"s  c #8A887B",
"d  c #8A897B",
"f  c #8A887C",
"g  c #8A897C",
"h  c #8B897C",
"j  c #8A887D",
"k  c #8B897D",
"l  c #8B8A7C",
"z  c #8B897E",
"x  c #8B887F",
"c  c #8C8B7D",
"v  c #8C887E",
"b  c #8D897F",
"n  c #8C8A7E",
"m  c #8D8B7E",
"M  c #8C8A7F",
"N  c #8D8B7F",
"B  c #8C8980",
"V  c #8D8B80",
"C  c #8C8A81",
"Z  c #8D8A81",
"A  c #8D8B81",
"S  c #8E8B82",
"D  c #8E8C80",
"F  c #8E8C81",
"G  c #8E8C82",
"H  c #8F8C82",
"J  c #8F8D82",
"K  c #8F8C83",
"L  c #8F8D83",
"P  c #8F8D84",
"I  c #908D83",
"U  c #908E83",
"Y  c #908E84",
"T  c #918E84",
"R  c #918F84",
"E  c #908E85",
"W  c #928F85",
"Q  c #918F86",
"!  c #928E86",
"~  c #928F86",
"^  c #928F87",
"/  c #929086",
"(  c #929087",
")  c #949087",
"_  c #949088",
"`  c #949188",
"'  c #959288",
"]  c #97948A",
"[  c #97958A",
"{  c #98958B",
"}  c #98968B",
"|  c #99968C",
" . c #99968E",
/* pixels */
"W W N q 9 6 6 6 3 6 q d d n N l q 6 6 3 6 3 6 6 6 3 6 6 3 3 6 6 3 6 6 q 2 q 6 6 3 6 6 3 q n q q W ; ",
"W H d 9 9 6 6 6 q d l q q d q 3 6 6 6 6 6 3 6 3 6 6 3 6 6 6 6 3 6 6 q q 9 9 3 6 6 9 q q 6 6 q q z ; ",
"C U q 9 3 6 3 6 6 q q 3 q 9 9 6 3 6 3 6 6 6 3 6 3 3 6 6 6 6 6 3 6 6 y q 6 3 6 6 q d C q 6 3 6 3 q & ",
"9 C n q 6 6 3 6 3 6 6 6 2 q 6 6 6 6 3 6 3 6 6 6 6 6 6 3 3 3 6 6 9 q q 3 6 6 6 3 y C n q 6 3 6 6 z o ",
"y q n q 6 6 3 6 6 3 6 6 6 3 3 6 6 3 6 6 3 6 6 3 3 6 6 6 6 6 6 3 3 6 6 6 6 6 6 3 q q 6 3 6 6 3 6 q o ",
"9 q 9 6 3 6 3 6 6 3 6 3 6 6 6 6 6 6 3 6 3 6 6 3 6 6 3 3 6 3 6 6 6 6 3 6 3 3 6 6 9 q 6 3 6 3 6 6 z X ",
"9 q 6 3 6 3 6 6 6 6 3 6 3 6 6 3 3 3 6 6 6 6 6 6 6 3 6 6 3 6 3 6 6 3 6 3 6 6 3 6 9 6 6 6 6 6 3 3 q X ",
"9 q 6 3 6 6 6 3 3 6 6 6 3 6 6 3 6 6 6 3 6 3 3 6 6 6 3 6 6 6 3 6 6 3 6 6 6 3 6 6 6 6 3 6 3 6 6 6 q X ",
"9 y 9 9 6 3 6 6 6 6 3 6 3 6 6 6 6 3 3 6 3 6 6 6 3 6 6 3 6 6 6 3 3 6 6 6 3 6 6 3 6 6 6 3 6 3 3 6 z X ",
"9 q 6 6 6 3 6 3 3 6 3 6 6 6 3 6 6 6 6 6 6 6 3 3 3 6 6 3 6 3 6 6 6 6 3 6 3 6 6 3 3 3 6 6 6 6 6 6 q X ",
"q n d 6 6 6 3 6 6 3 6 6 6 3 6 3 3 6 6 3 6 3 6 6 6 6 6 6 3 6 3 6 6 3 6 3 6 6 6 6 6 6 3 6 3 6 6 3 y X ",
"q N n 9 3 6 6 6 6 6 6 3 6 3 6 6 3 6 6 3 6 6 3 6 6 3 3 6 6 6 3 6 6 3 6 6 6 3 3 6 6 3 6 6 3 6 6 9 d X ",
"2 n q 9 9 6 6 3 3 6 6 3 6 6 3 6 6 6 6 3 6 3 6 6 6 3 3 6 6 6 3 6 6 3 6 6 6 3 3 6 6 6 3 6 6 6 3 q n X ",
"2 H q 9 6 6 6 3 3 6 6 3 6 3 6 6 6 3 6 6 6 3 6 3 6 6 6 6 3 6 3 6 6 3 6 3 6 6 6 6 3 6 3 6 6 6 6 q H o ",
"2 n n d 6 6 6 6 6 6 6 6 6 6 3 3 3 6 3 6 6 6 3 6 3 6 6 3 6 3 6 6 6 6 3 6 3 6 6 3 6 3 6 6 9 9 q C H + ",
"2 q d d 6 3 3 6 6 3 3 6 3 6 6 6 6 6 3 6 3 6 6 6 3 6 6 3 6 6 6 3 3 6 6 6 3 6 6 3 6 6 6 3 q q y q z X ",
"2 q 6 3 6 3 3 6 6 3 3 6 3 6 6 6 6 6 3 6 3 6 6 6 3 6 6 3 6 6 6 3 6 6 3 3 6 6 3 6 6 6 3 6 3 6 6 6 9 + ",
"2 q 6 6 6 6 6 6 6 6 6 6 6 6 3 3 3 6 3 6 6 6 3 6 3 6 6 3 6 3 6 6 3 6 6 6 6 3 6 6 3 6 3 6 6 6 3 6 6 + ",
"2 9 3 6 3 6 6 3 3 6 6 3 6 3 6 6 6 3 6 6 6 3 6 3 6 6 6 6 3 6 3 6 3 6 6 6 6 6 3 3 6 3 6 6 6 3 6 3 d + ",
"9 9 6 6 3 6 6 3 3 6 6 3 6 6 3 6 6 6 6 3 6 3 6 6 6 3 3 6 6 6 3 6 6 6 3 3 3 6 6 6 6 6 6 3 6 3 6 6 9 + ",
"2 9 9 6 3 6 6 6 6 6 6 3 6 3 6 6 3 6 6 3 6 6 3 6 6 3 3 6 6 6 3 6 3 6 6 6 6 6 6 3 3 6 6 3 6 6 3 6 d + ",
"1 9 6 6 6 6 3 6 6 3 6 6 6 3 6 3 3 6 6 3 6 3 6 6 6 6 6 6 3 6 3 6 6 6 3 6 3 3 6 6 3 6 6 3 6 3 6 6 6 + ",
"2 q 6 6 6 3 6 3 3 6 3 6 6 6 3 6 6 6 6 6 6 6 3 3 3 6 6 3 6 3 6 6 6 3 6 3 6 6 3 6 6 6 6 6 6 6 3 3 d   ",
"2 9 6 6 6 3 6 6 6 6 3 6 3 6 6 6 6 3 3 6 3 6 6 6 3 6 6 3 6 6 6 3 6 3 6 6 6 3 6 6 6 3 3 6 3 6 6 6 q + ",
"2 9 6 6 6 6 6 3 3 6 6 6 3 6 6 3 6 6 6 3 6 3 3 6 6 6 3 6 6 6 3 6 3 6 6 6 3 6 6 3 6 6 6 3 6 3 3 6 z X ",
"9 9 6 6 6 3 6 6 6 6 3 6 3 6 6 3 3 3 6 6 6 6 6 6 6 3 6 6 3 6 3 6 6 6 3 6 3 6 6 3 3 3 6 6 6 6 6 6 9 + ",
"1 6 9 6 3 6 3 6 6 3 6 3 6 6 6 6 6 6 3 6 3 6 6 3 6 6 3 3 6 3 6 6 6 3 6 3 6 6 6 6 6 6 3 6 3 6 6 3 d + ",
"1 6 9 6 6 6 3 6 6 3 6 6 6 3 3 6 6 3 6 6 3 6 6 3 3 6 6 6 6 6 6 3 6 3 6 6 6 3 3 6 6 3 6 6 3 6 6 3 q + ",
"2 q 3 6 6 6 3 6 6 3 6 6 6 3 3 6 6 6 3 6 3 6 6 6 6 6 6 3 3 3 6 6 6 3 6 6 6 3 3 6 6 6 3 6 3 6 6 6 9 + ",
"2 9 6 6 3 6 3 6 6 3 6 3 6 6 6 6 3 6 3 6 6 6 3 6 3 3 6 6 6 6 6 3 6 3 6 3 6 6 6 6 3 6 3 6 6 6 3 6 d X ",
"2 9 6 3 6 3 6 6 6 6 3 6 3 6 6 3 6 3 6 6 6 3 6 3 6 6 3 6 6 6 6 3 6 6 3 6 3 6 6 3 6 3 6 6 6 3 6 6 q + ",
"9 9 6 3 6 6 6 3 3 6 6 6 3 6 6 3 6 6 6 3 6 3 6 6 6 3 6 6 3 3 6 6 3 6 6 6 3 6 6 3 6 6 6 3 6 6 6 9 9 + ",
"6 9 6 6 6 3 6 6 6 3 6 6 3 3 6 6 3 6 6 6 3 6 6 3 6 6 6 3 6 3 6 6 6 6 3 6 6 3 6 6 6 3 6 6 3 3 6 6 r + ",
"6 9 6 6 6 3 6 3 6 6 3 6 6 6 6 3 6 6 3 6 3 6 6 3 6 3 6 6 6 3 6 3 3 6 3 6 6 3 6 3 6 6 3 6 6 6 6 3 r + ",
"2 q 6 3 6 6 3 6 3 3 6 6 6 6 6 3 6 3 6 3 6 6 6 6 3 6 3 6 6 6 3 6 6 3 6 6 6 6 3 6 3 3 6 6 6 3 6 3 6 + ",
"2 9 6 6 3 6 6 6 6 6 6 3 3 3 6 6 6 3 6 6 6 3 3 6 6 6 3 6 3 6 6 6 6 6 6 3 3 6 6 6 6 6 6 3 6 6 6 q z + ",
"C q 9 6 6 6 6 3 3 6 6 6 6 6 6 3 6 3 6 6 6 3 3 6 6 3 6 6 3 6 6 3 3 6 6 6 3 6 6 3 6 3 3 6 3 3 6 n H + ",
"9 y 9 9 3 6 6 3 6 6 3 3 6 3 6 6 6 3 6 3 6 6 6 6 6 6 3 6 3 6 6 3 3 6 3 6 3 6 6 3 6 6 6 6 6 6 q q H o ",
"y q q q 6 6 6 6 6 3 6 6 3 6 3 6 6 6 3 6 3 6 6 3 3 3 6 6 6 6 6 6 6 3 6 6 6 6 6 6 3 6 6 3 6 3 9 9 N o ",
"C d q 2 6 3 3 6 6 6 3 6 6 6 3 6 3 6 6 6 3 6 6 3 6 6 6 3 6 3 3 6 6 q q 9 6 3 3 6 3 6 6 3 6 6 6 6 H o ",
"n d 9 9 6 3 3 6 3 6 6 3 6 6 6 3 6 3 6 6 6 3 6 6 6 3 3 6 3 6 6 6 q q q q 6 6 6 3 6 6 3 6 6 6 3 6 z o ",
"y N q q 6 6 6 6 3 6 6 3 6 3 6 6 6 3 6 3 6 6 3 6 6 6 6 6 6 6 3 3 9 q n d q 3 6 6 6 3 6 6 3 6 n d 6 + ",
"y U n q 3 6 6 6 6 6 6 6 3 6 3 6 6 6 3 6 3 3 6 6 3 6 6 3 6 3 6 6 9 6 3 q 3 6 3 6 6 6 3 3 6 6 q l z + ",
"y U n 9 3 6 9 9 6 3 3 6 6 6 3 6 3 6 6 6 6 6 6 3 3 6 6 3 6 6 3 6 6 6 6 6 3 6 6 6 3 6 6 6 3 9 q 3 6 + ",
"n U q q 6 6 3 q 6 3 3 6 6 6 3 6 6 6 3 3 3 6 6 6 6 6 6 3 6 3 6 6 3 3 6 6 6 6 3 3 3 6 6 6 6 6 6 q H $ ",
"n C 2 q 9 q q q 6 6 6 6 3 6 3 6 3 6 6 6 6 6 3 3 6 3 6 6 6 3 6 3 6 6 6 3 3 6 6 6 6 6 6 6 6 3 q q H $ ",
"h U n q q 2 d q 3 6 6 3 6 3 6 6 3 6 6 6 6 3 6 6 3 6 3 6 6 6 6 9 6 6 6 3 3 6 6 6 6 3 9 9 q q q y P & ",
"3 / C C C n q 6 3 6 6 3 6 6 6 3 6 6 3 3 6 6 3 6 6 6 3 6 3 6 6 9 3 3 6 6 6 6 3 3 6 6 9 q q H C H / X ",
"y ]  . .{ { ) ) ` ) W W H P C W C U C I C B C C C I I I I W K P U W W ^ ^ W W W ^ ^ ^ ` } }  . .C   ",
"W q > * & & & & & & & & & & & & & & & & & & & & & & & & & & & & & = > > > = & & & & & & & & = > z < "
};
