/* XPM */
static char *_e417316172d45ae9955a183f6bfa909uHW2Rgb6jKm9qXOa[] = {
/* columns rows colors chars-per-pixel */
"50 50 69 1 ",
"  c None",
". c #4E2913",
"X c #4F2C18",
"o c #512E1A",
"O c #56341F",
"+ c #533522",
"@ c #593723",
"# c #563926",
"$ c #5B3A24",
"% c #563C2B",
"& c #5A3E2B",
"* c #563F30",
"= c #5B412E",
"- c #574233",
"; c #5C4534",
": c #5E4836",
"> c #5C4738",
", c #5D4B3C",
"< c #604533",
"1 c #614837",
"2 c #634D3B",
"3 c #684E3C",
"4 c #67503E",
"5 c #69503F",
"6 c #5D4E41",
"7 c #5E5141",
"8 c #634F41",
"9 c #635444",
"0 c #6A5443",
"q c #6C5846",
"w c #63564A",
"e c #665A4C",
"r c #6B5C4D",
"t c #705F4F",
"y c #655D54",
"u c #6A5E51",
"i c #655F5B",
"p c #68604F",
"a c #71614F",
"s c #676052",
"d c #6C6154",
"f c #66615C",
"g c #6B645D",
"h c #6E695E",
"j c #736455",
"k c #71675B",
"l c #746A5D",
"z c #796C5D",
"x c #6C6661",
"c c #6F6C60",
"v c #736D63",
"b c #796F62",
"n c #757165",
"m c #7D7264",
"M c #777369",
"N c #79756A",
"B c #7D796E",
"V c #7E7B71",
"C c #81776C",
"Z c #827A6D",
"A c #827E73",
"S c #858276",
"D c #868379",
"F c #89867B",
"G c #8B897F",
"H c #8E8B82",
"J c #918E85",
"K c #929087",
"L c #95928A",
/* pixels */
"                                                  ",
"                     1ZZZCCz=                     ",
"                    CLLLLGGDVj                    ",
"                   zLLLLKJGDAA0                   ",
"                  5SGLLLHHDAVMd=                  ",
"                  5FGGGKLHHSMvl:                  ",
"                  jSFSC3032tnlh,                  ",
"                 &DDZq5tuus94hpr@                 ",
"                 &VC4dnBrrVNd,rp@                 ",
"                 &m0knl4ww5vMf29O                 ",
"                 $z0v04hvNd,%e,2O                 ",
"                 $l0u0nnBANner,,O                 ",
"                 $j0p0dkAVkjur,2.                 ",
"                 $j8e9jlVBlduw>2.                 ",
"                 $j9u2nAVVAM9y;2.                 ",
"                 0k3gr120092eg;,=                 ",
"                 tj2w2uudrpv;,>,;                 ",
"                 tj2<dvvmvmNk=>>>                 ",
"                 jz$gnNvqtlBBc#,;                 ",
"                 jl9dnN0SS4BBl99>                 ",
"                2Cr90vu2jj:sn9l2h%                ",
"                2D:et1<rjjr1,kn=s#                ",
"                2D<kDHCj;;dNFSn=s#                ",
"                3D;kBAD0444SANn=s#                ",
"               @nD>lvnn07pqMnnn=s7X               ",
"               $BD;hvnmqehqNnnn%sw.               ",
"               2CF;dvnn5pv9Nnns#s7+               ",
"               jVG&9dkn2ec0Mcs7Xp9>               ",
"               tDG=:9sg;sv1hy6%+pp;               ",
"                25=9,>22sM4;;&,+#%                ",
"                  4deeuvcchd,,6+                  ",
"                  vnvgMMvcff,69,                  ",
"               q0<ACMvABMvxx77eeX+=               ",
"              0AB0DABBACBMvh,77e=ep4              ",
"             0SBCA&jz0AAVMcco>-XepdS2             ",
"             mCBAAvww2AAVMvvo=-+ppkBm             ",
"             mCBAvlbiu88,*%#,6,;9pnBz             ",
"             mAZC0GACguyyyyy779w=kBBb             ",
"             mSZCqHAANMMMhidie9w=lBBb             ",
"             mASAbrCCbMCMvxdw,,#9NBBz             ",
"             CAAFAAjqtttjur92<9bSBVNz             ",
"             dFSAFGAZCtCjjjajASDSVVD9             ",
"             0MDGGFFAAGASDDFDDDADAAu%             ",
"             $wNJJHHHHHGHGGGGGFHHHu%.             ",
"             &i0Cxxxxxxxfffxiyyyix*-.             ",
"             $vu2<<;<<*<;;*;;;&%%%,6.             ",
"              &xMvxgxxxixfxiffiiiy6+              ",
"               &Mvkxxxxxxxfffiffxi+               ",
"                $OO@OOOOOO@OOOOO..                ",
"                                                  "
};
