/* XPM */
static char *a5a08e235b6d46abf08f5a3b12ea1e9bHzgSyR0y0UvJme66[] = {
/* columns rows colors chars-per-pixel */
"50 50 149 2 ",
"   c #4D2712",
".  c #4E2812",
"X  c #522B15",
"o  c #542F18",
"O  c #56321B",
"+  c #59351C",
"@  c #5C381F",
"#  c #573620",
"$  c #5A3720",
"%  c #5D3B23",
"&  c #5C3E2A",
"*  c #613D24",
"=  c #5E412C",
"-  c #634126",
";  c #64452A",
":  c #69462A",
">  c #67482C",
",  c #6A4A2E",
"<  c #644731",
"1  c #664933",
"2  c #6C4D31",
"3  c #654F3C",
"4  c #694E39",
"5  c #6F5234",
"6  c #66523F",
"7  c #6C533D",
"8  c #715536",
"9  c #735639",
"0  c #755A3B",
"q  c #795E3E",
"w  c #7A603E",
"e  c #675340",
"r  c #6B5642",
"t  c #6D5A45",
"y  c #6D5C49",
"u  c #715740",
"i  c #735B45",
"p  c #7A5F41",
"a  c #725E49",
"s  c #7A5F49",
"d  c #7A6140",
"f  c #7B6140",
"g  c #7B6041",
"h  c #7B6040",
"j  c #7C6040",
"k  c #7C6141",
"l  c #7D6240",
"z  c #7D6241",
"x  c #7D6341",
"c  c #7E6341",
"v  c #7C6042",
"b  c #7C6243",
"n  c #7D6243",
"m  c #7D6343",
"M  c #7E6342",
"N  c #7E6343",
"B  c #7F6343",
"V  c #7F6441",
"C  c #7E6442",
"Z  c #7F6442",
"A  c #7E6344",
"S  c #7F6344",
"D  c #7F6444",
"F  c #7C6241",
"G  c #72604A",
"H  c #73604A",
"J  c #73614A",
"K  c #74614A",
"L  c #75624B",
"P  c #74624C",
"I  c #75624C",
"U  c #76634D",
"Y  c #75624D",
"T  c #7A6049",
"R  c #7D634D",
"E  c #78644E",
"W  c #78654F",
"Q  c #7E654E",
"!  c #79634D",
"~  c #776650",
"^  c #756551",
"/  c #786650",
"(  c #796750",
")  c #786651",
"_  c #796751",
"`  c #796752",
"'  c #7F6651",
"]  c #796651",
"[  c #796852",
"{  c #7A6953",
"}  c #7A6A53",
"|  c #7D6853",
" . c #7A6854",
".. c #7B6954",
"X. c #7B6A54",
"o. c #7A6A55",
"O. c #7B6A55",
"+. c #7B6B55",
"@. c #7C6B55",
"#. c #7F6A54",
"$. c #7C6B56",
"%. c #7C6C55",
"&. c #7D6C55",
"*. c #7D6C56",
"=. c #7D6C57",
"-. c #7E6D57",
";. c #7B6A55",
":. c #7E6D58",
">. c #7C6D5A",
",. c #7F705D",
"<. c #806544",
"1. c #816644",
"2. c #806647",
"3. c #816747",
"4. c #826746",
"5. c #826747",
"6. c #816847",
"7. c #826846",
"8. c #826847",
"9. c #826947",
"0. c #806748",
"q. c #816748",
"w. c #846B4C",
"e. c #846B4A",
"r. c #836C57",
"t. c #846D58",
"y. c #836F5B",
"u. c #807059",
"i. c #80705A",
"p. c #81715B",
"a. c #81705C",
"s. c #81715C",
"d. c #83715C",
"f. c #82725D",
"g. c #83725D",
"h. c #83735D",
"j. c #85735D",
"k. c #81715E",
"l. c #867560",
"z. c #827361",
"x. c #877967",
"c. c #887963",
"v. c #897965",
"b. c #8A7B67",
"n. c #897A65",
"m. c #877A68",
"M. c #897C6A",
"N. c #8E806E",
"B. c #8E8170",
/* pixels */
"- p 5.0 0 0 0 0 , 0 <.<.<.<.<.<.2 8 j j <.0 <.<.* 5 B j B B B j 8 8 q q l j q q 0 8 q q w q w e.q O ",
"* p 5.0 0 0 0 0 2 9 <.<.<.<.<.<.2 8 j j 0 <.<.<.5 5 1.j B j V B 8 5 l j j j <.q 0 8 q q q q q e.0 o ",
"* 9 p 0 0 0 0 0 5 9 p <.<.j 0 <.2 8 j j 0 <.u <.8 8 4.<.V V j j 8 5 p 0 0 V j j 9 8 q w q q q 0.9 X ",
"@ , 9 9 8 0 9 9 2 9 p p q 8 2 j 8 5 j j <.0 <.<.8 8 4.<.V V V V 8 5 q , 8 0 q 0 8 2 q q q 0 0 0 : X ",
"@ @ * % * * * * * - - , : p t., : 8 <.0 <.u <.<.8 8 1.V V V j j 8 : : r.u - : - : * - * * * * * + X ",
"O 1 7 9 0 p u p s s p p s r.j.Q 2 8 u <.q j u <.8 8 4.1.V j j V 8 2 r.y.#.s s i u 9 u u 9 r 7 7 ; X ",
"O 8 [ ( =.r.r.r.u.h.h.h.a.y.u.c.<.8 9 <.<.0 <.<.5 8 1.V l l j 0 9 s v.>.>.u.a.>.#.O.[ #.=.O.~ I 4 X ",
"O 1 t i H a ^ a [ [ O.[ O.O.=.=.j.2.* <.0 <.0 <.5 8 1.l l l j : Q v.[ #.[ [ ~ Y L J L a a J t i < . ",
"o 1 u i K L L I ( O.O.[ #.#.=.=.4 : 9 q p q p p 5 8 1.V V V j j 2 , } [ [ ( ~ H J J J J J J t 0 < X ",
"o * - ; - : > > < < 1 1 1 u E 1 * : <.q q p p <.2 8 1.1.V V j j 2 - 2 L u < > > = > = = = = = = $ X ",
"O O O O + + + + O @ @ @ @ , 8 @ 2 9 p p q p p p 8 8 4.1.V j j V 9 - + 6 > + + + @ @ + + + O O O X X ",
"o * * ; - - : : @ - : : : * + 2 5 9 p 0 p q p <.2 8 4.1.V V j j 9 > > + % , > > > > > > , , > > * X ",
"X : 8 8 8 8 5 5 - , 0 q 0 5 : 2 2 9 j 0 p p p p 8 8 4.1.V j V j 8 5 0 , 2 w 9 8 8 2 8 8 8 8 5 5 - X ",
"X : 9 9 9 8 0 9 - 5 q w q 0 5 5 2 0 0 <.0 j p <.2 8 e.l V j V j 8 5 w 8 9 w w w w 2 9 9 9 8 0 8 : X ",
"o : 9 9 9 0 9 9 : 8 q q q p q 5 2 8 p p j 0 j <.8 8 e.1.l l j j 8 5 d w w w w w w 5 w 8 9 9 9 9 : X ",
"o : 9 9 9 0 0 9 2 8 j q q w 0 , 2 8 0 0 0 j 0 <.2 8 e.l l l l j 5 5 d w w w w w 8 5 8 8 9 9 9 9 ; . ",
"X : 0 9 8 0 8 0 , 9 w 0 q q 0 > 2 8 j j p q q <.2 5 5.<.<.q j q 8 5 j q q q q q 8 5 8 8 9 9 9 9 ; X ",
"X : 8 8 9 8 0 8 , 9 w q 0 q 0 8 2 9 q 0 0 q q p 5 8 5.<.q <.j <.8 8 j j q q q q 9 5 8 9 9 9 8 8 ; X ",
"X : 9 9 0 8 0 8 , 0 w q q 0 0 q 5 8 0 0 p 0 p <.2 8 w.<.j j q q 8 8 V j q q q q 8 5 8 8 9 5 8 9 : X ",
"X : 9 9 9 9 8 0 , 9 q 0 0 q 0 0 5 8 0 0 u 9 p <.2 8 w.<.j q <.q 9 8 j 0 q 0 q q 8 5 8 8 9 5 9 6 ; X ",
"X : 8 8 8 9 9 8 2 9 q 0 8 0 0 0 5 8 0 0 0 2 * * ; * 2 > 8 q j j 0 8 l q q 0 q 0 0 5 5 8 8 8 5 8 ; X ",
"X : 8 8 9 0 9 8 , 9 q 0 0 0 0 0 2 8 q 0 2 8 u u u 9 u 9 8 8 j q 9 9 j q 0 q q q 8 , 8 8 5 8 8 8 ; . ",
"X ; w 8 8 8 8 8 2 9 q 0 0 0 0 8 5 8 0 0 * u b.v.v.v.v.v.8 : q q 9 8 1.0 q 0 0 q 8 5 5 8 8 8 8 5 = X ",
"X ; 8 8 9 8 9 9 2 9 q 0 0 0 8 0 2 8 0 0 * 5 r.2.( ` ( I , : q j 9 8 j j 0 0 0 0 5 , 5 8 5 8 5 8 ; X ",
"X - 8 9 8 9 9 8 2 8 q 0 8 0 0 8 2 5 0 9 - > J J 4 1 I H < ; 0 q 8 8 <.0 0 0 0 0 5 > 5 5 5 5 5 7 - X ",
"X ; 8 9 9 8 8 9 5 8 q 8 8 8 8 0 5 5 0 0 * ; J J * & J J > * 0 0 8 8 j 0 0 0 0 0 5 > 5 5 5 5 5 5 = X ",
"X ; 8 8 0 8 9 8 2 9 q 0 8 8 8 8 5 8 0 0 % = G i & & i i & % 0 9 5 8 p q 0 0 j 0 5 > 2 7 5 5 5 5 - X ",
". - 8 8 8 8 8 8 2 8 q 8 0 8 8 0 2 5 0 0 @ % 7 7 7 7 7 7 % % 9 0 5 5 q q 0 0 0 0 2 , 5 5 2 5 5 5 - . ",
". - 8 8 8 0 8 8 2 9 q 8 9 2 > 5 2 8 8 9 : % % = % & % % % - 0 9 5 5 p 2 5 0 0 0 5 > 5 5 5 5 5 5 - . ",
". = , , > > 2 > : 1 8 > 2 2 7 2 , 8 0 9 5 - O O o X + + - 8 0 9 5 5 8 7 5 5 5 2 : - > > ; > ; ; @ . ",
". o + + @ % % % * * % * * s y.- : 5 9 0 0 5 , , * @ , , 5 0 9 9 5 : * y.s * * * * * # $ @ @ + + o . ",
". , G G P P P J ` | #.| O.#.>.a.2 > 0 8 8 8 8 8 : , 9 8 9 9 9 0 2 4 l. . .R / / a a s I U U y G > . ",
". 1 G J P ~ ~ P %.%.>.%.%.%.o.,.E 5 , 0 0 7 9 0 > > w 8 9 9 9 , 0 } >.} ~ } } ^ ^ J J ^ ^ ^ y w 1 . ",
". = r 7 t y G y J ~ Y ^ ~ ~ ~ ~ ~ 8 > 5 8 0 9 9 1 > 9 9 9 0 9 > 7 } ~ J ^ J J y y y y G 7 G 7 e =   ",
". = 7 7 y y 0 w J Y Y E E E ~ ~ = % 0 8 8 0 9 9 > > 9 9 9 8 9 8 % % J ~ J J J 0 y 7 y 7 y 7 6 6 ; . ",
". O O + # # O + + # # # # 4 y % % > 8 8 8 8 9 9 > > 9 9 9 9 8 8 > % % 6 3 # # + # # # # # # # @ o . ",
". O + + + + @ @ o O @ @ % - ; @ = : 8 8 8 8 8 9 > > 8 8 8 8 8 5 > = @ = & @ @ @ + + @ + + + + + o   ",
". + - - - : : : @ = 2 2 , = + > ; > 8 8 8 8 8 8 > > 8 8 8 8 8 5 > - 2 @ % , , , - = - > - - - - +   ",
". = 5 5 5 2 2 5 % ; 8 8 5 5 , 5 ; > 8 8 8 8 8 8 ; > 8 8 5 5 5 8 > > 0 , 5 0 0 0 5 - 5 > 8 , , , @   ",
". = 5 2 2 5 5 2 = > 5 7 5 5 5 8 ; 2 8 8 8 8 8 8 = - 8 8 8 8 5 5 > > 0 8 0 0 0 0 , = > 5 , , , 5 =   ",
". - 5 2 5 5 5 5 - , 8 5 8 8 8 8 > > 8 8 8 5 8 8 = = 8 8 8 5 5 5 > > 0 0 9 w 0 0 , - > , 5 > 2 2 =   ",
". % > 2 > , > 2 * > 2 2 1 2 2 1 - ; 1 2 2 2 1 > + @ , , 2 1 2 4 - - 5 5 5 5 5 9 > - > > > > ; = #   ",
". o + # $ $ % % @ = @ @ @ @ O % O O O # O O o X . o O o O O # # + + @ @ + @ O O + + O O o o X .     ",
". - 7 7 7 r r r 0 7 7 t t t t t t r r y r t i y % = y y G t y ^ t y t t 6 t t r 6 7 6 7 7 7 6 6 =   ",
". 7 O.O.,.>.,.,.,.,.,.,.-.,.,.,.,.,.,.,.,.,.M.M.= 1 M.M.M.,.,.,.a.,.>.>.,.>.>.,.>.,.>.>.>.>.>.>.6   ",
". e ,.,.,.,.,.,.,.,.,.,.,.z.z.m.M.,.M.M.M.M.B.B.4 1 N.N.B.,.B.,.m.m.z.z.,.,.,.,.,.,.,.,.,.,.,.,.6   ",
"  = r r e e r e r r r r t y G y y y y y y Y y ^ = = ^ P y y y y y y y y y t t t t t 6 6 6 6 6 6 =   ",
"  = e e e e e e e e r 6 r r y r t t y t y y y Y & = P y y y y y y y y t t t 6 t 6 6 3 6 6 3 3 3 =   ",
"  = e 3 e e e e e e r r t t t e y t y e y y y y & & ^ y y y y e y y y t r r e e e e e e 6 3 3 3 =   ",
"  = e e 3 3 e e e e e r e t t t t t y e y y y ^ & & ^ y y y y y r y y r r t r t r e r r 6 3 3 3 =   "
};
